<mxfile host="Electron" modified="2024-03-10T08:40:34.309Z" agent="Mozilla/5.0 (Windows NT 10.0; Win64; x64) AppleWebKit/537.36 (KHTML, like Gecko) draw.io/23.1.5 Chrome/120.0.6099.109 Electron/28.1.0 Safari/537.36" etag="LQjk3I4_mWNaK4gFzoK9" version="23.1.5" type="device">
  <diagram name="Страница — 1" id="w6AWHocnBI2rJVfHqtL0">
    <mxGraphModel dx="1036" dy="1783" grid="1" gridSize="10" guides="1" tooltips="1" connect="1" arrows="1" fold="1" page="1" pageScale="1" pageWidth="827" pageHeight="1169" math="0" shadow="0">
      <root>
        <mxCell id="0" />
        <mxCell id="1" parent="0" />
        <mxCell id="9utB4ZHODrUIfakK2tWH-13" value="Пользователь" style="rounded=0;whiteSpace=wrap;html=1;fontFamily=Times New Roman;fontSize=16;points=[[0,0,0,0,0],[0,0.25,0,0,0],[0,0.5,0,0,0],[0,0.75,0,0,0],[0,1,0,0,0],[0.43,0,0,0,0],[0.43,1,0,0,0],[0.5,0,0,0,0],[0.5,1,0,0,0],[0.57,0,0,0,0],[0.57,1,0,0,0],[1,0,0,0,0],[1,0.25,0,0,0],[1,0.5,0,0,0],[1,0.75,0,0,0],[1,1,0,0,0]];" vertex="1" parent="1">
          <mxGeometry x="240" y="330" width="140" height="40" as="geometry" />
        </mxCell>
        <mxCell id="9utB4ZHODrUIfakK2tWH-88" value="сайт" style="ellipse;whiteSpace=wrap;html=1;fontFamily=Times New Roman;fontSize=16;" vertex="1" parent="1">
          <mxGeometry x="250" y="510" width="140" height="40" as="geometry" />
        </mxCell>
        <mxCell id="9utB4ZHODrUIfakK2tWH-90" value="телефон" style="ellipse;whiteSpace=wrap;html=1;fontFamily=Times New Roman;fontSize=16;" vertex="1" parent="1">
          <mxGeometry x="250" y="570" width="140" height="40" as="geometry" />
        </mxCell>
        <mxCell id="9utB4ZHODrUIfakK2tWH-92" value="email" style="ellipse;whiteSpace=wrap;html=1;fontFamily=Times New Roman;fontSize=16;" vertex="1" parent="1">
          <mxGeometry x="250" y="450" width="140" height="40" as="geometry" />
        </mxCell>
        <mxCell id="9utB4ZHODrUIfakK2tWH-104" value="Лекарство" style="rounded=0;whiteSpace=wrap;html=1;fontFamily=Times New Roman;fontSize=16;points=[[0,0,0,0,0],[0,0.25,0,0,0],[0,0.5,0,0,0],[0,0.75,0,0,0],[0,1,0,0,0],[0.43,0,0,0,0],[0.43,1,0,0,0],[0.5,0,0,0,0],[0.5,1,0,0,0],[0.57,0,0,0,0],[0.57,1,0,0,0],[1,0,0,0,0],[1,0.25,0,0,0],[1,0.5,0,0,0],[1,0.75,0,0,0],[1,1,0,0,0]];" vertex="1" parent="1">
          <mxGeometry x="240" y="190" width="140" height="40" as="geometry" />
        </mxCell>
        <mxCell id="9utB4ZHODrUIfakK2tWH-106" value="название" style="ellipse;whiteSpace=wrap;html=1;fontFamily=Times New Roman;fontSize=16;" vertex="1" parent="1">
          <mxGeometry x="250" y="-40" width="140" height="40" as="geometry" />
        </mxCell>
        <mxCell id="9utB4ZHODrUIfakK2tWH-108" value="разовая доза" style="ellipse;whiteSpace=wrap;html=1;fontFamily=Times New Roman;fontSize=16;" vertex="1" parent="1">
          <mxGeometry x="250" y="20" width="140" height="40" as="geometry" />
        </mxCell>
        <mxCell id="9utB4ZHODrUIfakK2tWH-109" value="id" style="ellipse;whiteSpace=wrap;html=1;fontFamily=Times New Roman;fontSize=16;" vertex="1" parent="1">
          <mxGeometry x="250" y="-100" width="140" height="40" as="geometry" />
        </mxCell>
        <mxCell id="9utB4ZHODrUIfakK2tWH-111" value="id" style="ellipse;whiteSpace=wrap;html=1;fontFamily=Times New Roman;fontSize=16;" vertex="1" parent="1">
          <mxGeometry x="250" y="390" width="140" height="40" as="geometry" />
        </mxCell>
        <mxCell id="9utB4ZHODrUIfakK2tWH-115" value="вид лекарства" style="ellipse;whiteSpace=wrap;html=1;fontFamily=Times New Roman;fontSize=16;" vertex="1" parent="1">
          <mxGeometry x="250" y="80" width="140" height="40" as="geometry" />
        </mxCell>
        <mxCell id="9utB4ZHODrUIfakK2tWH-116" value="режим приема" style="ellipse;whiteSpace=wrap;html=1;fontFamily=Times New Roman;fontSize=16;" vertex="1" parent="1">
          <mxGeometry x="250" y="140" width="140" height="40" as="geometry" />
        </mxCell>
        <mxCell id="9utB4ZHODrUIfakK2tWH-117" value="" style="endArrow=none;html=1;rounded=0;entryX=0;entryY=0.5;entryDx=0;entryDy=0;" edge="1" parent="1" target="9utB4ZHODrUIfakK2tWH-109">
          <mxGeometry width="50" height="50" relative="1" as="geometry">
            <mxPoint x="240" y="190" as="sourcePoint" />
            <mxPoint x="240" y="140" as="targetPoint" />
            <Array as="points">
              <mxPoint x="240" y="-80" />
            </Array>
          </mxGeometry>
        </mxCell>
        <mxCell id="9utB4ZHODrUIfakK2tWH-118" value="" style="endArrow=none;html=1;rounded=0;entryX=0;entryY=0.5;entryDx=0;entryDy=0;" edge="1" parent="1" target="9utB4ZHODrUIfakK2tWH-106">
          <mxGeometry width="50" height="50" relative="1" as="geometry">
            <mxPoint x="240" y="190" as="sourcePoint" />
            <mxPoint x="190" y="200" as="targetPoint" />
            <Array as="points">
              <mxPoint x="240" y="-20" />
            </Array>
          </mxGeometry>
        </mxCell>
        <mxCell id="9utB4ZHODrUIfakK2tWH-119" value="" style="endArrow=none;html=1;rounded=0;entryX=0;entryY=0.5;entryDx=0;entryDy=0;exitX=0;exitY=0;exitDx=0;exitDy=0;exitPerimeter=0;" edge="1" parent="1" source="9utB4ZHODrUIfakK2tWH-104" target="9utB4ZHODrUIfakK2tWH-108">
          <mxGeometry width="50" height="50" relative="1" as="geometry">
            <mxPoint x="240" y="250" as="sourcePoint" />
            <mxPoint x="210" y="200" as="targetPoint" />
            <Array as="points">
              <mxPoint x="240" y="40" />
            </Array>
          </mxGeometry>
        </mxCell>
        <mxCell id="9utB4ZHODrUIfakK2tWH-120" value="" style="endArrow=none;html=1;rounded=0;entryX=0;entryY=0.5;entryDx=0;entryDy=0;" edge="1" parent="1" target="9utB4ZHODrUIfakK2tWH-115">
          <mxGeometry width="50" height="50" relative="1" as="geometry">
            <mxPoint x="240" y="190" as="sourcePoint" />
            <mxPoint x="230" y="190" as="targetPoint" />
            <Array as="points">
              <mxPoint x="240" y="100" />
            </Array>
          </mxGeometry>
        </mxCell>
        <mxCell id="9utB4ZHODrUIfakK2tWH-121" value="" style="endArrow=none;html=1;rounded=0;entryX=0;entryY=0.5;entryDx=0;entryDy=0;" edge="1" parent="1" target="9utB4ZHODrUIfakK2tWH-116">
          <mxGeometry width="50" height="50" relative="1" as="geometry">
            <mxPoint x="240" y="190" as="sourcePoint" />
            <mxPoint x="220" y="180" as="targetPoint" />
            <Array as="points">
              <mxPoint x="240" y="160" />
            </Array>
          </mxGeometry>
        </mxCell>
        <mxCell id="9utB4ZHODrUIfakK2tWH-126" value="" style="endArrow=none;html=1;rounded=0;entryX=0;entryY=1;entryDx=0;entryDy=0;entryPerimeter=0;exitX=0;exitY=0.5;exitDx=0;exitDy=0;" edge="1" parent="1" source="9utB4ZHODrUIfakK2tWH-90" target="9utB4ZHODrUIfakK2tWH-13">
          <mxGeometry width="50" height="50" relative="1" as="geometry">
            <mxPoint x="140" y="410" as="sourcePoint" />
            <mxPoint x="190" y="360" as="targetPoint" />
            <Array as="points">
              <mxPoint x="240" y="590" />
            </Array>
          </mxGeometry>
        </mxCell>
        <mxCell id="9utB4ZHODrUIfakK2tWH-127" value="" style="endArrow=none;html=1;rounded=0;entryX=0;entryY=1;entryDx=0;entryDy=0;entryPerimeter=0;exitX=0;exitY=0.5;exitDx=0;exitDy=0;" edge="1" parent="1" source="9utB4ZHODrUIfakK2tWH-88" target="9utB4ZHODrUIfakK2tWH-13">
          <mxGeometry width="50" height="50" relative="1" as="geometry">
            <mxPoint x="160" y="500" as="sourcePoint" />
            <mxPoint x="210" y="450" as="targetPoint" />
            <Array as="points">
              <mxPoint x="240" y="530" />
            </Array>
          </mxGeometry>
        </mxCell>
        <mxCell id="9utB4ZHODrUIfakK2tWH-128" value="" style="endArrow=none;html=1;rounded=0;entryX=0;entryY=1;entryDx=0;entryDy=0;entryPerimeter=0;exitX=0;exitY=0.5;exitDx=0;exitDy=0;" edge="1" parent="1" source="9utB4ZHODrUIfakK2tWH-92" target="9utB4ZHODrUIfakK2tWH-13">
          <mxGeometry width="50" height="50" relative="1" as="geometry">
            <mxPoint x="190" y="440" as="sourcePoint" />
            <mxPoint x="240" y="390" as="targetPoint" />
            <Array as="points">
              <mxPoint x="240" y="470" />
            </Array>
          </mxGeometry>
        </mxCell>
        <mxCell id="9utB4ZHODrUIfakK2tWH-129" value="" style="endArrow=none;html=1;rounded=0;entryX=0;entryY=1;entryDx=0;entryDy=0;entryPerimeter=0;exitX=0;exitY=0.5;exitDx=0;exitDy=0;" edge="1" parent="1" source="9utB4ZHODrUIfakK2tWH-111" target="9utB4ZHODrUIfakK2tWH-13">
          <mxGeometry width="50" height="50" relative="1" as="geometry">
            <mxPoint x="180" y="450" as="sourcePoint" />
            <mxPoint x="230" y="400" as="targetPoint" />
            <Array as="points">
              <mxPoint x="240" y="410" />
            </Array>
          </mxGeometry>
        </mxCell>
        <mxCell id="9utB4ZHODrUIfakK2tWH-130" value="принимает" style="rhombus;whiteSpace=wrap;html=1;fontFamily=Times New Roman;fontSize=16;spacingTop=0;" vertex="1" parent="1">
          <mxGeometry x="240" y="260" width="140" height="40" as="geometry" />
        </mxCell>
        <mxCell id="9utB4ZHODrUIfakK2tWH-131" value="" style="endArrow=none;html=1;rounded=0;entryX=0.5;entryY=1;entryDx=0;entryDy=0;entryPerimeter=0;exitX=0.5;exitY=0;exitDx=0;exitDy=0;" edge="1" parent="1" source="9utB4ZHODrUIfakK2tWH-130" target="9utB4ZHODrUIfakK2tWH-104">
          <mxGeometry width="50" height="50" relative="1" as="geometry">
            <mxPoint x="290" y="310" as="sourcePoint" />
            <mxPoint x="340" y="260" as="targetPoint" />
          </mxGeometry>
        </mxCell>
        <mxCell id="9utB4ZHODrUIfakK2tWH-132" value="" style="endArrow=none;html=1;rounded=0;entryX=0.5;entryY=1;entryDx=0;entryDy=0;exitX=0.5;exitY=0;exitDx=0;exitDy=0;exitPerimeter=0;" edge="1" parent="1" source="9utB4ZHODrUIfakK2tWH-13" target="9utB4ZHODrUIfakK2tWH-130">
          <mxGeometry width="50" height="50" relative="1" as="geometry">
            <mxPoint x="120" y="360" as="sourcePoint" />
            <mxPoint x="170" y="310" as="targetPoint" />
          </mxGeometry>
        </mxCell>
        <mxCell id="9utB4ZHODrUIfakK2tWH-134" value="n" style="text;html=1;align=center;verticalAlign=middle;resizable=0;points=[];autosize=1;strokeColor=none;fillColor=none;" vertex="1" parent="1">
          <mxGeometry x="305" y="230" width="30" height="30" as="geometry" />
        </mxCell>
        <mxCell id="9utB4ZHODrUIfakK2tWH-135" value="m" style="text;html=1;align=center;verticalAlign=middle;resizable=0;points=[];autosize=1;strokeColor=none;fillColor=none;" vertex="1" parent="1">
          <mxGeometry x="305" y="300" width="30" height="30" as="geometry" />
        </mxCell>
        <mxCell id="9utB4ZHODrUIfakK2tWH-136" value="Напоминание" style="rounded=0;whiteSpace=wrap;html=1;fontFamily=Times New Roman;fontSize=16;points=[[0,0,0,0,0],[0,0.25,0,0,0],[0,0.5,0,0,0],[0,0.75,0,0,0],[0,1,0,0,0],[0.43,0,0,0,0],[0.43,1,0,0,0],[0.5,0,0,0,0],[0.5,1,0,0,0],[0.57,0,0,0,0],[0.57,1,0,0,0],[1,0,0,0,0],[1,0.25,0,0,0],[1,0.5,0,0,0],[1,0.75,0,0,0],[1,1,0,0,0]];" vertex="1" parent="1">
          <mxGeometry x="440" y="260" width="140" height="40" as="geometry" />
        </mxCell>
        <mxCell id="9utB4ZHODrUIfakK2tWH-137" value="дата и время напоминания" style="ellipse;whiteSpace=wrap;html=1;fontFamily=Times New Roman;fontSize=16;" vertex="1" parent="1">
          <mxGeometry x="450" y="140" width="140" height="40" as="geometry" />
        </mxCell>
        <mxCell id="9utB4ZHODrUIfakK2tWH-138" value="текст&lt;br&gt;напоминания" style="ellipse;whiteSpace=wrap;html=1;fontFamily=Times New Roman;fontSize=16;" vertex="1" parent="1">
          <mxGeometry x="450" y="200" width="140" height="40" as="geometry" />
        </mxCell>
        <mxCell id="9utB4ZHODrUIfakK2tWH-139" value="id" style="ellipse;whiteSpace=wrap;html=1;fontFamily=Times New Roman;fontSize=16;" vertex="1" parent="1">
          <mxGeometry x="450" y="80" width="140" height="40" as="geometry" />
        </mxCell>
        <mxCell id="9utB4ZHODrUIfakK2tWH-142" value="" style="endArrow=none;html=1;rounded=0;entryX=0;entryY=0.5;entryDx=0;entryDy=0;" edge="1" parent="1" target="9utB4ZHODrUIfakK2tWH-139">
          <mxGeometry width="50" height="50" relative="1" as="geometry">
            <mxPoint x="440" y="370" as="sourcePoint" />
            <mxPoint x="440" y="320" as="targetPoint" />
            <Array as="points">
              <mxPoint x="440" y="100" />
            </Array>
          </mxGeometry>
        </mxCell>
        <mxCell id="9utB4ZHODrUIfakK2tWH-143" value="" style="endArrow=none;html=1;rounded=0;entryX=0;entryY=0.5;entryDx=0;entryDy=0;" edge="1" parent="1" target="9utB4ZHODrUIfakK2tWH-137">
          <mxGeometry width="50" height="50" relative="1" as="geometry">
            <mxPoint x="440" y="370" as="sourcePoint" />
            <mxPoint x="390" y="380" as="targetPoint" />
            <Array as="points">
              <mxPoint x="440" y="160" />
            </Array>
          </mxGeometry>
        </mxCell>
        <mxCell id="9utB4ZHODrUIfakK2tWH-144" value="" style="endArrow=none;html=1;rounded=0;entryX=0;entryY=0.5;entryDx=0;entryDy=0;exitX=0;exitY=0;exitDx=0;exitDy=0;exitPerimeter=0;" edge="1" parent="1" target="9utB4ZHODrUIfakK2tWH-138">
          <mxGeometry width="50" height="50" relative="1" as="geometry">
            <mxPoint x="440" y="370" as="sourcePoint" />
            <mxPoint x="410" y="380" as="targetPoint" />
            <Array as="points">
              <mxPoint x="440" y="220" />
            </Array>
          </mxGeometry>
        </mxCell>
        <mxCell id="9utB4ZHODrUIfakK2tWH-147" value="" style="endArrow=none;html=1;rounded=0;exitX=0;exitY=0.5;exitDx=0;exitDy=0;exitPerimeter=0;entryX=1;entryY=0.5;entryDx=0;entryDy=0;" edge="1" parent="1" source="9utB4ZHODrUIfakK2tWH-136" target="9utB4ZHODrUIfakK2tWH-130">
          <mxGeometry width="50" height="50" relative="1" as="geometry">
            <mxPoint x="230" y="200" as="sourcePoint" />
            <mxPoint x="280" y="150" as="targetPoint" />
          </mxGeometry>
        </mxCell>
        <mxCell id="9utB4ZHODrUIfakK2tWH-148" value="1" style="text;html=1;align=center;verticalAlign=middle;resizable=0;points=[];autosize=1;strokeColor=none;fillColor=none;" vertex="1" parent="1">
          <mxGeometry x="399" y="250" width="30" height="30" as="geometry" />
        </mxCell>
        <mxCell id="9utB4ZHODrUIfakK2tWH-149" value="дата создания" style="ellipse;whiteSpace=wrap;html=1;fontFamily=Times New Roman;fontSize=16;" vertex="1" parent="1">
          <mxGeometry x="450" y="380" width="140" height="40" as="geometry" />
        </mxCell>
        <mxCell id="9utB4ZHODrUIfakK2tWH-150" value="дата последнего&amp;nbsp;&lt;br&gt;обновления" style="ellipse;whiteSpace=wrap;html=1;fontFamily=Times New Roman;fontSize=16;" vertex="1" parent="1">
          <mxGeometry x="450" y="440" width="140" height="40" as="geometry" />
        </mxCell>
        <mxCell id="9utB4ZHODrUIfakK2tWH-153" value="" style="endArrow=none;html=1;rounded=0;entryX=0;entryY=1;entryDx=0;entryDy=0;entryPerimeter=0;exitX=0;exitY=0.5;exitDx=0;exitDy=0;" edge="1" parent="1" source="9utB4ZHODrUIfakK2tWH-150">
          <mxGeometry width="50" height="50" relative="1" as="geometry">
            <mxPoint x="340" y="280" as="sourcePoint" />
            <mxPoint x="440" y="240" as="targetPoint" />
            <Array as="points">
              <mxPoint x="440" y="460" />
            </Array>
          </mxGeometry>
        </mxCell>
        <mxCell id="9utB4ZHODrUIfakK2tWH-154" value="" style="endArrow=none;html=1;rounded=0;entryX=0;entryY=1;entryDx=0;entryDy=0;entryPerimeter=0;exitX=0;exitY=0.5;exitDx=0;exitDy=0;" edge="1" parent="1" source="9utB4ZHODrUIfakK2tWH-149">
          <mxGeometry width="50" height="50" relative="1" as="geometry">
            <mxPoint x="360" y="370" as="sourcePoint" />
            <mxPoint x="440" y="240" as="targetPoint" />
            <Array as="points">
              <mxPoint x="440" y="400" />
            </Array>
          </mxGeometry>
        </mxCell>
        <mxCell id="9utB4ZHODrUIfakK2tWH-155" value="" style="endArrow=none;html=1;rounded=0;entryX=0;entryY=1;entryDx=0;entryDy=0;entryPerimeter=0;exitX=0;exitY=0.5;exitDx=0;exitDy=0;" edge="1" parent="1">
          <mxGeometry width="50" height="50" relative="1" as="geometry">
            <mxPoint x="450" y="340" as="sourcePoint" />
            <mxPoint x="440" y="240" as="targetPoint" />
            <Array as="points">
              <mxPoint x="440" y="340" />
            </Array>
          </mxGeometry>
        </mxCell>
        <mxCell id="9utB4ZHODrUIfakK2tWH-157" value="статус отправки" style="ellipse;whiteSpace=wrap;html=1;fontFamily=Times New Roman;fontSize=16;" vertex="1" parent="1">
          <mxGeometry x="450" y="320" width="140" height="40" as="geometry" />
        </mxCell>
        <mxCell id="9utB4ZHODrUIfakK2tWH-158" value="id лекарства" style="ellipse;whiteSpace=wrap;html=1;fontFamily=Times New Roman;fontSize=16;" vertex="1" parent="1">
          <mxGeometry x="60" y="110" width="140" height="40" as="geometry" />
        </mxCell>
        <mxCell id="9utB4ZHODrUIfakK2tWH-159" value="дата и время приема" style="ellipse;whiteSpace=wrap;html=1;fontFamily=Times New Roman;fontSize=16;" vertex="1" parent="1">
          <mxGeometry x="60" y="170" width="140" height="40" as="geometry" />
        </mxCell>
        <mxCell id="9utB4ZHODrUIfakK2tWH-160" value="id пользователя" style="ellipse;whiteSpace=wrap;html=1;fontFamily=Times New Roman;fontSize=16;" vertex="1" parent="1">
          <mxGeometry x="60" y="50" width="140" height="40" as="geometry" />
        </mxCell>
        <mxCell id="9utB4ZHODrUIfakK2tWH-161" value="дозировка" style="ellipse;whiteSpace=wrap;html=1;fontFamily=Times New Roman;fontSize=16;" vertex="1" parent="1">
          <mxGeometry x="60" y="230" width="140" height="40" as="geometry" />
        </mxCell>
        <mxCell id="9utB4ZHODrUIfakK2tWH-162" value="статус приема" style="ellipse;whiteSpace=wrap;html=1;fontFamily=Times New Roman;fontSize=16;" vertex="1" parent="1">
          <mxGeometry x="60" y="290" width="140" height="40" as="geometry" />
        </mxCell>
        <mxCell id="9utB4ZHODrUIfakK2tWH-163" value="дата создания" style="ellipse;whiteSpace=wrap;html=1;fontFamily=Times New Roman;fontSize=16;" vertex="1" parent="1">
          <mxGeometry x="60" y="350" width="140" height="40" as="geometry" />
        </mxCell>
        <mxCell id="9utB4ZHODrUIfakK2tWH-164" value="дата последнего&amp;nbsp;&lt;br&gt;обновления" style="ellipse;whiteSpace=wrap;html=1;fontFamily=Times New Roman;fontSize=16;" vertex="1" parent="1">
          <mxGeometry x="60" y="410" width="140" height="40" as="geometry" />
        </mxCell>
        <mxCell id="9utB4ZHODrUIfakK2tWH-165" value="Продолжительность приема" style="ellipse;whiteSpace=wrap;html=1;fontFamily=Times New Roman;fontSize=16;" vertex="1" parent="1">
          <mxGeometry x="60" y="474.5" width="140" height="40" as="geometry" />
        </mxCell>
        <mxCell id="9utB4ZHODrUIfakK2tWH-166" value="" style="endArrow=none;html=1;rounded=0;entryX=0;entryY=0.5;entryDx=0;entryDy=0;exitX=1;exitY=0.5;exitDx=0;exitDy=0;" edge="1" parent="1" source="9utB4ZHODrUIfakK2tWH-165" target="9utB4ZHODrUIfakK2tWH-130">
          <mxGeometry width="50" height="50" relative="1" as="geometry">
            <mxPoint x="200" y="340" as="sourcePoint" />
            <mxPoint x="250" y="290" as="targetPoint" />
            <Array as="points">
              <mxPoint x="220" y="495" />
              <mxPoint x="220" y="280" />
            </Array>
          </mxGeometry>
        </mxCell>
        <mxCell id="9utB4ZHODrUIfakK2tWH-167" value="" style="endArrow=none;html=1;rounded=0;entryX=1;entryY=0.5;entryDx=0;entryDy=0;exitX=0;exitY=0.5;exitDx=0;exitDy=0;" edge="1" parent="1" source="9utB4ZHODrUIfakK2tWH-130" target="9utB4ZHODrUIfakK2tWH-160">
          <mxGeometry width="50" height="50" relative="1" as="geometry">
            <mxPoint x="180" y="260" as="sourcePoint" />
            <mxPoint x="230" y="210" as="targetPoint" />
            <Array as="points">
              <mxPoint x="220" y="280" />
              <mxPoint x="220" y="70" />
            </Array>
          </mxGeometry>
        </mxCell>
        <mxCell id="9utB4ZHODrUIfakK2tWH-168" value="" style="endArrow=none;html=1;rounded=0;entryX=1;entryY=0.5;entryDx=0;entryDy=0;exitX=0;exitY=0.5;exitDx=0;exitDy=0;" edge="1" parent="1" source="9utB4ZHODrUIfakK2tWH-130" target="9utB4ZHODrUIfakK2tWH-158">
          <mxGeometry width="50" height="50" relative="1" as="geometry">
            <mxPoint x="180" y="260" as="sourcePoint" />
            <mxPoint x="230" y="210" as="targetPoint" />
            <Array as="points">
              <mxPoint x="220" y="280" />
              <mxPoint x="220" y="130" />
            </Array>
          </mxGeometry>
        </mxCell>
        <mxCell id="9utB4ZHODrUIfakK2tWH-169" value="" style="endArrow=none;html=1;rounded=0;entryX=0;entryY=0.5;entryDx=0;entryDy=0;exitX=1;exitY=0.5;exitDx=0;exitDy=0;" edge="1" parent="1" source="9utB4ZHODrUIfakK2tWH-159" target="9utB4ZHODrUIfakK2tWH-130">
          <mxGeometry width="50" height="50" relative="1" as="geometry">
            <mxPoint y="340" as="sourcePoint" />
            <mxPoint x="50" y="290" as="targetPoint" />
            <Array as="points">
              <mxPoint x="220" y="190" />
              <mxPoint x="220" y="280" />
            </Array>
          </mxGeometry>
        </mxCell>
        <mxCell id="9utB4ZHODrUIfakK2tWH-170" value="" style="endArrow=none;html=1;rounded=0;entryX=0;entryY=0.5;entryDx=0;entryDy=0;exitX=1;exitY=0.5;exitDx=0;exitDy=0;" edge="1" parent="1" source="9utB4ZHODrUIfakK2tWH-161" target="9utB4ZHODrUIfakK2tWH-130">
          <mxGeometry width="50" height="50" relative="1" as="geometry">
            <mxPoint x="-10" y="370" as="sourcePoint" />
            <mxPoint x="40" y="320" as="targetPoint" />
            <Array as="points">
              <mxPoint x="220" y="250" />
              <mxPoint x="220" y="280" />
            </Array>
          </mxGeometry>
        </mxCell>
        <mxCell id="9utB4ZHODrUIfakK2tWH-171" value="" style="endArrow=none;html=1;rounded=0;entryX=0;entryY=0.5;entryDx=0;entryDy=0;exitX=1;exitY=0.5;exitDx=0;exitDy=0;" edge="1" parent="1" source="9utB4ZHODrUIfakK2tWH-162" target="9utB4ZHODrUIfakK2tWH-130">
          <mxGeometry width="50" height="50" relative="1" as="geometry">
            <mxPoint y="370" as="sourcePoint" />
            <mxPoint x="50" y="320" as="targetPoint" />
            <Array as="points">
              <mxPoint x="220" y="310" />
              <mxPoint x="220" y="280" />
            </Array>
          </mxGeometry>
        </mxCell>
        <mxCell id="9utB4ZHODrUIfakK2tWH-172" value="" style="endArrow=none;html=1;rounded=0;entryX=0;entryY=0.5;entryDx=0;entryDy=0;exitX=1;exitY=0.5;exitDx=0;exitDy=0;" edge="1" parent="1" source="9utB4ZHODrUIfakK2tWH-163" target="9utB4ZHODrUIfakK2tWH-130">
          <mxGeometry width="50" height="50" relative="1" as="geometry">
            <mxPoint x="20" y="380" as="sourcePoint" />
            <mxPoint x="70" y="330" as="targetPoint" />
            <Array as="points">
              <mxPoint x="220" y="370" />
              <mxPoint x="220" y="280" />
            </Array>
          </mxGeometry>
        </mxCell>
        <mxCell id="9utB4ZHODrUIfakK2tWH-173" value="" style="endArrow=none;html=1;rounded=0;entryX=0;entryY=0.5;entryDx=0;entryDy=0;exitX=1;exitY=0.5;exitDx=0;exitDy=0;" edge="1" parent="1" source="9utB4ZHODrUIfakK2tWH-164" target="9utB4ZHODrUIfakK2tWH-130">
          <mxGeometry width="50" height="50" relative="1" as="geometry">
            <mxPoint x="20" y="500" as="sourcePoint" />
            <mxPoint x="70" y="450" as="targetPoint" />
            <Array as="points">
              <mxPoint x="220" y="430" />
              <mxPoint x="220" y="280" />
            </Array>
          </mxGeometry>
        </mxCell>
      </root>
    </mxGraphModel>
  </diagram>
</mxfile>
